<svg xmlns="http://www.w3.org/2000/svg" width="921" height="513" viewBox="0 0 921 513">
  <g id="Grupo_5499" data-name="Grupo 5499" transform="translate(-109.5 -1474)">
    <rect id="Rectángulo_3153" data-name="Rectángulo 3153" width="921" height="513" rx="13" transform="translate(109.5 1474)" fill="#9bbb59" opacity="0.201"/>
    <g id="Grupo_5363" data-name="Grupo 5363">
      <text id="_0" data-name="0" transform="translate(182 1859)" fill="#00223d" font-size="24" font-family="Montserrat-Bold, Montserrat" font-weight="700"><tspan x="0" y="0">0</tspan></text>
      <text id="_50" data-name="50" transform="translate(167 1719)" fill="#00223d" font-size="24" font-family="Montserrat-Bold, Montserrat" font-weight="700"><tspan x="0" y="0">50</tspan></text>
      <text id="Maduración" transform="translate(516 1884)" fill="#00223d" font-size="16" font-family="Montserrat-Bold, Montserrat" font-weight="700"><tspan x="0" y="0">Maduración</tspan></text>
      <text id="Crecimiento_de_la_fruta" data-name="Crecimiento de la fruta" transform="translate(648 1587)" fill="#00223d" font-size="16" font-family="Montserrat-Bold, Montserrat" font-weight="700"><tspan x="0" y="0">Crecimiento de la fruta</tspan></text>
      <text id="Cambio_relativo" data-name="Cambio relativo" transform="translate(143 1740) rotate(-90)" fill="#00223d" font-size="16" font-family="Montserrat-Bold, Montserrat" font-weight="700"><tspan x="0" y="0">Cambio relativo</tspan></text>
      <text id="Respiración_no_climatérica" data-name="Respiración 
no climatérica" transform="translate(840 1639)" fill="#00223d" font-size="16" font-family="Montserrat-Bold, Montserrat" font-weight="700"><tspan x="0" y="0">Respiración </tspan><tspan x="0" y="24">no climatérica</tspan></text>
      <text id="Respiración_climatérica" data-name="Respiración climatérica" transform="translate(600 1721)" fill="#00223d" font-size="16" font-family="Montserrat-Bold, Montserrat" font-weight="700"><tspan x="0" y="0">Respiración climatérica</tspan></text>
      <text id="Crecimiento_celular" data-name="Crecimiento celular" transform="translate(330 1919)" fill="#00223d" font-size="18" font-family="Montserrat-Bold, Montserrat" font-weight="700"><tspan x="0" y="0">Crecimiento celular</tspan></text>
      <text id="División_celular" data-name="División
celular" transform="translate(200 1940)" fill="#00223d" font-size="16" font-family="Montserrat-Bold, Montserrat" font-weight="700"><tspan x="0" y="0">División</tspan><tspan x="0" y="20">celular</tspan></text>
      <text id="Maduración_Organoléptica" data-name="Maduración
Organoléptica" transform="translate(663 1952)" fill="#00223d" font-size="12" font-family="Montserrat-Bold, Montserrat" font-weight="700"><tspan x="0" y="0">Maduración</tspan><tspan x="0" y="20">Organoléptica</tspan></text>
      <text id="Envejecimiento" transform="translate(779 1887)" fill="#00223d" font-size="16" font-family="Montserrat-Bold, Montserrat" font-weight="700"><tspan x="0" y="0">Envejecimiento</tspan></text>
      <text id="_100" data-name="100" transform="translate(156 1511)" fill="#00223d" font-size="24" font-family="Montserrat-Bold, Montserrat" font-weight="700"><tspan x="0" y="0">100</tspan></text>
      <line id="Línea_70" data-name="Línea 70" y1="2" x2="748" transform="translate(204 1856)" fill="none" stroke="#80cbc4" stroke-width="6"/>
      <line id="Línea_71" data-name="Línea 71" y1="385" transform="translate(205 1474)" fill="none" stroke="#80cbc4" stroke-width="6"/>
      <path id="Trazado_11125" data-name="Trazado 11125" d="M4185.288-4771.8c158.181-4.7,162.311-26.034,235.359-94.1s53.322-252.02,290.761-252.246,79.133,0,161.982,0" transform="translate(-3970 6621.077)" fill="none" stroke="#fde082" stroke-width="5"/>
      <path id="Trazado_11126" data-name="Trazado 11126" d="M4150.273-5234.078s21.156,105.234,67.43,161.914,102.422,102.617,289.359,101.234,203.313,2.453,247.813-34.883,32.711-58.711,73.125-41.484" transform="translate(-3932.414 6750)" fill="none" stroke="#7cb342" stroke-width="5"/>
      <path id="Trazado_11127" data-name="Trazado 11127" d="M4172.227-5149.074s21.5,143.68,90.711,196.82c72.5,65.207,319.039,56.328,605.477,38.121" transform="translate(-3955.207 6721)" fill="none" stroke="#266165" stroke-width="5"/>
      <line id="Línea_72" data-name="Línea 72" x2="20" transform="translate(204 1503)" fill="none" stroke="#80cbc4" stroke-width="3"/>
      <line id="Línea_73" data-name="Línea 73" x2="20" transform="translate(204 1711)" fill="none" stroke="#80cbc4" stroke-width="3"/>
      <line id="Línea_74" data-name="Línea 74" x2="96" transform="translate(392 1879)" fill="none" stroke="#707070" stroke-width="3"/>
      <line id="Línea_79" data-name="Línea 79" x2="40" transform="translate(208 1912)" fill="none" stroke="#707070" stroke-width="3"/>
      <line id="Línea_84" data-name="Línea 84" x2="40" transform="translate(280 1912)" fill="none" stroke="#707070" stroke-width="3"/>
      <line id="Línea_85" data-name="Línea 85" x2="40" transform="translate(528 1912)" fill="none" stroke="#707070" stroke-width="3"/>
      <line id="Línea_87" data-name="Línea 87" x2="32" transform="translate(744 1880)" fill="none" stroke="#707070" stroke-width="3"/>
      <line id="Línea_88" data-name="Línea 88" x2="36" transform="translate(916 1880)" fill="none" stroke="#707070" stroke-width="3"/>
      <line id="Línea_76" data-name="Línea 76" x2="96" transform="translate(648 1880)" fill="none" stroke="#707070" stroke-width="3"/>
      <line id="Línea_75" data-name="Línea 75" y2="32" transform="translate(392 1864)" fill="none" stroke="#707070" stroke-width="3"/>
      <line id="Línea_89" data-name="Línea 89" y2="32" transform="translate(952 1864)" fill="none" stroke="#707070" stroke-width="3"/>
      <line id="Línea_78" data-name="Línea 78" y2="24" transform="translate(208 1900)" fill="none" stroke="#707070" stroke-width="3"/>
      <line id="Línea_86" data-name="Línea 86" y2="24" transform="translate(569 1900)" fill="none" stroke="#707070" stroke-width="3"/>
      <path id="Trazado_11128" data-name="Trazado 11128" d="M0,0V29.568" transform="translate(744 1864)" fill="none" stroke="#707070" stroke-width="3"/>
      <g id="Grupo_5183" data-name="Grupo 5183">
        <line id="Línea_80" data-name="Línea 80" y2="16" transform="translate(280 1898)" fill="none" stroke="#707070" stroke-width="3"/>
        <line id="Línea_81" data-name="Línea 81" y2="16" transform="translate(280 1915)" fill="none" stroke="#707070" stroke-width="3"/>
        <line id="Línea_82" data-name="Línea 82" y2="16" transform="translate(280 1936)" fill="none" stroke="#707070" stroke-width="3"/>
        <line id="Línea_83" data-name="Línea 83" y2="16" transform="translate(280 1955)" fill="none" stroke="#707070" stroke-width="3"/>
      </g>
      <g id="Grupo_5184" data-name="Grupo 5184" transform="translate(384 -3)">
        <line id="Línea_80-2" data-name="Línea 80" y2="12" transform="translate(280 1898)" fill="none" stroke="#707070" stroke-width="3"/>
        <line id="Línea_81-2" data-name="Línea 81" y2="12" transform="translate(280 1912)" fill="none" stroke="#707070" stroke-width="3"/>
        <line id="Línea_82-2" data-name="Línea 82" y2="11" transform="translate(280 1926)" fill="none" stroke="#707070" stroke-width="3"/>
      </g>
      <g id="Grupo_5185" data-name="Grupo 5185" transform="translate(464 -2)">
        <line id="Línea_80-3" data-name="Línea 80" y2="12" transform="translate(280 1898)" fill="none" stroke="#707070" stroke-width="3"/>
        <line id="Línea_81-3" data-name="Línea 81" y2="12" transform="translate(280 1912)" fill="none" stroke="#707070" stroke-width="3"/>
        <line id="Línea_82-3" data-name="Línea 82" y2="11" transform="translate(280 1926)" fill="none" stroke="#707070" stroke-width="3"/>
      </g>
      <g id="Grupo_5186" data-name="Grupo 5186" transform="translate(-695.521 2181.616) rotate(-101)">
        <rect id="rectangle" width="51.897" height="51.897" transform="translate(348 1465.859)" fill="none"/>
        <path id="path" d="M21.268,4,18.246,7.022,30.334,19.11l-51.378-.194.284,4.726,51.095-.215L18.246,35.515l3.022,3.022L38.537,21.268Z" transform="translate(352.634 1470.585)" fill="#002b45" fill-rule="evenodd"/>
      </g>
      <g id="Grupo_5188" data-name="Grupo 5188" transform="matrix(0.105, 0.995, -0.995, 0.105, 2201.072, 1221.052)">
        <rect id="rectangle-2" data-name="rectangle" width="51.897" height="51.897" transform="translate(348 1465.859)" fill="none"/>
        <path id="path-2" data-name="path" d="M21.268,4,18.246,7.022,30.334,19.11H4v4.317H30.334L18.246,35.515l3.022,3.022L38.537,21.268Z" transform="translate(352.634 1470.585)" fill="#002b45" fill-rule="evenodd"/>
      </g>
      <g id="Grupo_5187" data-name="Grupo 5187" transform="translate(2465.277 1642.46) rotate(101)">
        <rect id="rectangle-3" data-name="rectangle" width="51.897" height="41.897" transform="translate(348 1475.859)" fill="none"/>
        <path id="path-3" data-name="path" d="M21.268,4,18.246,7.022,30.334,19.11-83.453,16.766l-.076,3.877L30.334,23.427,18.246,35.515l3.022,3.022L38.537,21.268Z" transform="translate(407.686 1481.277)" fill="#002b45" fill-rule="evenodd"/>
      </g>
      <g id="Grupo_5189" data-name="Grupo 5189" transform="translate(280 1535.269)" opacity="0.083" style="mix-blend-mode: multiply;isolation: isolate">
        <path id="Trazado_9900" data-name="Trazado 9900" d="M155.733,296.642c-14.472,7.388-24.661,21.363-28.718,37.2,13.014,7.3,28.723,7.937,43.2.516,14.461-7.388,24.661-21.36,28.605-36.775a44.757,44.757,0,0,0-43.091-.941Z" transform="translate(-64.422 -291.571)" fill="#80cbc4"/>
        <path id="Trazado_9901" data-name="Trazado 9901" d="M225.856,339.811c-25.353,0-36.724,20.36-44.414,38.087l-40.978-78.752-10,7L174.1,378.031c-15.17-11.184-34.422-21.922-55.634-9.894-28.037,15.732-35.1,59.25-6.767,105.548,23.531,38.381,49.567,59.811,77.022,62.986,15.6,1.787,15.383-13.552,27.327-16.319,11.752-3.483,19.133,9.966,31.816.72,22.318-16.3,34.4-47.785,35.937-92.782C285.616,374.04,258,339.668,225.856,339.811Z" transform="translate(-93.626 -284.945)" fill="#80cbc4"/>
      </g>
      <g id="Grupo_5190" data-name="Grupo 5190" transform="translate(484.482 1495.607)" opacity="0.083" style="mix-blend-mode: multiply;isolation: isolate">
        <path id="Trazado_9898" data-name="Trazado 9898" d="M182.851,239.818c15.855,2.887,27.939,13.44,34.56,26.232a49.4,49.4,0,0,1-42.224,10.728,48.764,48.764,0,0,1-34.52-26.23,49.3,49.3,0,0,1,42.183-10.73Z" transform="translate(-140.668 -200.611)" fill="#80cbc4"/>
        <path id="Trazado_9899" data-name="Trazado 9899" d="M308.516,412.844c-21.024-26.682-26.432-22.9-36.339-55.632-9.785-45.979-23.4-62.4-43.921-61.454-1.276.058-3.132.25-5.032.491l-29.062-79.182-10.727,5.625,33.117,74.645c-19.765,4.34-28.5,24-26.163,70.559-1.167,34.178-7.366,31.913-20.834,63.1-17.2,38.84-14.353,72.376,10.832,92.946,30.069,25.078,49.335,2.59,71.619-2.7,22.9-.606,47.294,16.174,69.911-15.781C340.979,479.106,335.115,445.964,308.516,412.844Z" transform="translate(-126.983 -217.067)" fill="#80cbc4"/>
      </g>
      <g id="Grupo_5191" data-name="Grupo 5191" transform="translate(780.912 1478.401) rotate(45)" opacity="0.083" style="mix-blend-mode: multiply;isolation: isolate">
        <path id="Trazado_9869" data-name="Trazado 9869" d="M2.515,6.81C7.875-1.464,21-2.218,31.719,4.654s14.646,19.107,9.114,27.055c-3.02,4.708-7.963,7.122-14.038,7.258A26.025,26.025,0,0,0,16.816,26.88,30.216,30.216,0,0,0,1.471,22.264C-.748,16.882-.5,11.516,2.515,6.81Z" transform="translate(59.602 100.326)" fill="#80cbc4"/>
        <path id="Trazado_9870" data-name="Trazado 9870" d="M11.613,34.246c10.873,7.192,23.83,6.11,29.2-2.157C46.505,23.651,42.25,11.6,31.535,4.722,21.148-2.315,7.686-1.4,2.327,6.878S1.21,27.2,11.613,34.246Z" transform="translate(41.557 125.726)" fill="#80cbc4"/>
        <path id="Trazado_9871" data-name="Trazado 9871" d="M2.447,6.813C7.81-1.467,20.939-2.22,31.66,4.665S46.3,23.758,40.771,31.707c-3.008,4.7-7.963,7.121-14.034,7.263a26.006,26.006,0,0,0-9.983-12.078A30,30,0,0,0,1.407,22.263a16.665,16.665,0,0,1,1.04-15.45Z" transform="translate(76.913 74.535)" fill="#80cbc4"/>
        <path id="Trazado_9872" data-name="Trazado 9872" d="M2.124,6.816c5.856-8.1,18.817-9.19,29.209-2.141,10.724,6.886,14.643,19.1,9.284,27.371a16.6,16.6,0,0,1-13.861,6.769,28.4,28.4,0,0,0-10.171-11.6c-4.867-3.283-10.257-5.087-15.019-4.788-2.21-5.368-2.129-11.068.559-15.615Z" transform="translate(93.87 47.665)" fill="#80cbc4"/>
        <path id="Trazado_9873" data-name="Trazado 9873" d="M2.267,6.928C7.961-1.5,21.084-2.266,31.468,4.774c10.722,6.881,14.649,19.1,9.13,27.04-3.018,4.708-8.131,6.809-13.864,6.775a29.332,29.332,0,0,0-10.176-11.6A27.094,27.094,0,0,0,1.553,22.217c-2.218-5.386-2.13-11.07.713-15.289Z" transform="translate(110.676 20.955)" fill="#80cbc4"/>
        <path id="Trazado_9874" data-name="Trazado 9874" d="M2.316,6.814C7.683-1.469,20.8-2.22,31.527,4.666,42.252,11.533,46.008,23.428,40.646,31.7c-3.015,4.71-8.126,6.8-14.2,6.932A25.532,25.532,0,0,0,16.63,26.891,25.876,25.876,0,0,0,1.282,22.264C-.6,16.73-.535,11.024,2.316,6.814Z" transform="translate(106.499 112.24)" fill="#80cbc4"/>
        <path id="Trazado_9875" data-name="Trazado 9875" d="M11.675,34.52c10.72,6.886,23.685,5.8,29.536-2.3,5.357-8.286,1.117-20.339-9.443-27.7C21.046-2.374,8.092-1.289,2.4,7.146-3.131,15.1,1.281,27.471,11.675,34.52Z" transform="translate(88.194 137.363)" fill="#80cbc4"/>
        <path id="Trazado_9876" data-name="Trazado 9876" d="M2.319,6.8C7.684-1.46,20.792-2.221,31.533,4.657,42.252,11.547,46,23.439,40.643,31.7c-3.019,4.707-8.123,6.806-14.2,6.934a25.57,25.57,0,0,0-9.83-11.761A25.973,25.973,0,0,0,1.279,22.26C-.608,16.718-.524,11.032,2.319,6.8Z" transform="translate(123.752 86.447)" fill="#80cbc4"/>
        <path id="Trazado_9877" data-name="Trazado 9877" d="M2.567,6.808c5.36-8.269,18.489-9.028,29.2-2.153,10.388,7.035,14.649,19.107,8.787,27.215-2.687,4.542-8.128,6.786-13.7,7.092-1.9-4.72-5.45-8.659-10.321-11.919A27.078,27.078,0,0,0,1.526,22.263C-.695,16.882-.611,11.185,2.567,6.808Z" transform="translate(140.757 60.66)" fill="#80cbc4"/>
        <path id="Trazado_9878" data-name="Trazado 9878" d="M2.323,6.944C7.685-1.33,20.65-2.417,31.538,4.8c10.712,6.871,14.476,18.756,9.1,27.029-3.172,4.383-8.118,6.8-14.194,6.932a24.868,24.868,0,0,0-9.819-11.737c-4.879-3.287-10.257-5.1-15.353-4.641-1.88-5.53-1.8-11.222,1.05-15.439Z" transform="translate(152.375 124.831)" fill="#80cbc4"/>
        <path id="Trazado_9879" data-name="Trazado 9879" d="M11.676,34.508c10.73,6.9,23.688,5.814,29.541-2.291,5.358-8.291.954-20.655-9.447-27.71C21.054-2.373,8.089-1.284,2.4,7.142c-5.523,7.944-1.113,20.337,9.28,27.366Z" transform="translate(134.07 150.087)" fill="#80cbc4"/>
        <path id="Trazado_9880" data-name="Trazado 9880" d="M2.32,6.937c5.362-8.263,18.329-9.347,29.2-2.155,10.723,6.885,14.5,18.786,9.119,27.049-3.163,4.386-8.116,6.8-14.2,6.934A25.565,25.565,0,0,0,16.614,27c-4.868-3.263-10.25-5.082-15.34-4.613C-.608,16.849-.522,11.164,2.32,6.937Z" transform="translate(169.626 99.043)" fill="#80cbc4"/>
        <path id="Trazado_9881" data-name="Trazado 9881" d="M2.337,6.7C7.871-1.245,20.828-2.327,31.545,4.545s14.648,19.1,9.282,27.366c-3.178,4.385-8.131,6.806-14.2,6.932a25.981,25.981,0,0,0-10-12.07,27.888,27.888,0,0,0-15.33-4.625A17.634,17.634,0,0,1,2.337,6.7Z" transform="translate(199.232 136.505)" fill="#80cbc4"/>
        <path id="Trazado_9882" data-name="Trazado 9882" d="M11.761,34.538C22.477,41.41,35.442,40.323,41.137,31.9c5.366-8.264,1.1-20.332-9.284-27.366C21.138-2.341,8.185-1.261,2.32,6.848c-5.365,8.268-1.1,20.332,9.44,27.69Z" transform="translate(181.024 161.821)" fill="#80cbc4"/>
        <path id="Trazado_9883" data-name="Trazado 9883" d="M11.755,34.455c10.731,6.9,23.7,5.811,29.05-2.475,5.7-8.423,1.444-20.472-9.282-27.37C21.137-2.422,7.844-1.179,2.315,6.772c-5.356,8.281-1.1,20.328,9.439,27.683Z" transform="translate(227.241 173.641)" fill="#80cbc4"/>
        <path id="Trazado_9884" data-name="Trazado 9884" d="M.08,4.111c1.895,13.853,13.084,23,24.728,27.161C27.168,48.748,35.946,55.019,50.26,60.392A53.076,53.076,0,0,0,66.085,78.31a3.572,3.572,0,0,0,3.6.181,2.835,2.835,0,0,0,.127-4.982c-4.723-3.115-8.855-7.925-11.993-12.438a16.675,16.675,0,0,0,18.448-5.74c6.187-8.552,2.857-17.711-4.24-23.049C62.193,24.4,51.564,28.821,46.381,38c-2.148,3.4-2.512,10.72.285,14.918C34.09,49.784,32.41,40.906,31.1,33.332c6.311,1.729,10.517.553,14.293-3.253,3.762-4.141,2.217-9.707-.843-12.572-2.746-2.876-6.756-4.7-10.963-3.521-5.848,1.23-6.965,5.924-8.748,10.314C14.158,19.778,9.351,14.329,6.28,3.524A3.217,3.217,0,0,0,2.867,0,3.266,3.266,0,0,0,.08,4.111ZM30.829,26.706a6.227,6.227,0,0,1,3.665-6.459c5.15-2.2,7.988,2.984,5.494,6.074-1.528,2.39-6.825,1.275-9.159.385ZM52.063,40.74C55.7,33.625,62.58,33.678,68.3,37.414a10.893,10.893,0,0,1,2.572,14.492c-3.7,5.792-11.007,3.1-16.593,2.679-3.147-4.514-4.022-9.782-2.221-13.845Z" transform="translate(0 0)" fill="#80cbc4"/>
        <path id="Trazado_9885" data-name="Trazado 9885" d="M2.7,3.138c-3.887,1.152-4.016,8.667,2.479,7.4C22.371,6.51,39.166,5.258,53.271,13.623l3.481-2.792C41.786-2.477,18.887-1.522,2.7,3.138Z" transform="translate(28.47 70.993)" fill="#80cbc4"/>
      </g>
    </g>
  </g>
</svg>
